# Blender v2.80 (sub 75) OBJ File: ''
# www.blender.org
v 0.984850 1.000000 0.984850
v 0.984850 0.984850 1.000000
v 1.000000 0.984850 0.984850
v 0.984850 0.998847 0.990647
v 0.984850 0.995563 0.995563
v 0.990647 0.998847 0.984850
v 0.990793 0.997455 0.990793
v 0.990491 0.994792 0.994792
v 0.993597 0.993597 0.993597
v 0.990647 0.984850 0.998847
v 0.995563 0.984850 0.995563
v 0.984850 0.990647 0.998847
v 0.990793 0.990793 0.997455
v 0.994792 0.990491 0.994792
v 0.998847 0.990647 0.984850
v 0.995563 0.995563 0.984850
v 0.998847 0.984850 0.990647
v 0.997455 0.990793 0.990793
v 0.994792 0.994792 0.990491
v 0.984850 0.984850 -1.000000
v 0.984850 1.000000 -0.984850
v 1.000000 0.984850 -0.984850
v 0.984850 0.990647 -0.998847
v 0.984850 0.995563 -0.995563
v 0.990647 0.984850 -0.998847
v 0.990793 0.990793 -0.997455
v 0.990491 0.994792 -0.994792
v 0.993597 0.993597 -0.993597
v 0.990647 0.998847 -0.984850
v 0.995563 0.995563 -0.984850
v 0.984850 0.998847 -0.990647
v 0.990793 0.997455 -0.990793
v 0.994792 0.994792 -0.990491
v 0.998847 0.984850 -0.990647
v 0.995563 0.984850 -0.995563
v 0.998847 0.990647 -0.984850
v 0.997455 0.990793 -0.990793
v 0.994792 0.990491 -0.994792
v 1.000000 -0.984850 0.984850
v 0.984850 -0.984850 1.000000
v 0.984850 -1.000000 0.984850
v 0.998847 -0.984850 0.990647
v 0.995563 -0.984850 0.995563
v 0.998847 -0.990647 0.984850
v 0.997455 -0.990793 0.990793
v 0.994792 -0.990491 0.994792
v 0.993597 -0.993597 0.993597
v 0.984850 -0.990647 0.998847
v 0.984850 -0.995563 0.995563
v 0.990647 -0.984850 0.998847
v 0.990793 -0.990793 0.997455
v 0.990491 -0.994792 0.994792
v 0.990647 -0.998847 0.984850
v 0.995563 -0.995563 0.984850
v 0.984850 -0.998847 0.990647
v 0.990793 -0.997455 0.990793
v 0.994792 -0.994792 0.990491
v 1.000000 -0.984850 -0.984850
v 0.984850 -1.000000 -0.984850
v 0.984850 -0.984850 -1.000000
v 0.998847 -0.990647 -0.984850
v 0.995563 -0.995563 -0.984850
v 0.998847 -0.984850 -0.990647
v 0.997455 -0.990793 -0.990793
v 0.994792 -0.994792 -0.990491
v 0.993597 -0.993597 -0.993597
v 0.984850 -0.998847 -0.990647
v 0.984850 -0.995563 -0.995563
v 0.990647 -0.998847 -0.984850
v 0.990793 -0.997455 -0.990793
v 0.990491 -0.994792 -0.994792
v 0.990647 -0.984850 -0.998847
v 0.995563 -0.984850 -0.995563
v 0.984850 -0.990647 -0.998847
v 0.990793 -0.990793 -0.997455
v 0.994792 -0.990491 -0.994792
v -0.984850 1.000000 0.984850
v -1.000000 0.984850 0.984850
v -0.984850 0.984850 1.000000
v -0.990647 0.998847 0.984850
v -0.995563 0.995563 0.984850
v -0.984850 0.998847 0.990647
v -0.990793 0.997455 0.990793
v -0.994792 0.994792 0.990491
v -0.993597 0.993597 0.993597
v -0.998847 0.984850 0.990647
v -0.995563 0.984850 0.995563
v -0.998847 0.990647 0.984850
v -0.997455 0.990793 0.990793
v -0.994792 0.990491 0.994792
v -0.984850 0.990647 0.998847
v -0.984850 0.995563 0.995563
v -0.990647 0.984850 0.998847
v -0.990793 0.990793 0.997455
v -0.990491 0.994792 0.994792
v -1.000000 0.984850 -0.984850
v -0.984850 1.000000 -0.984850
v -0.984850 0.984850 -1.000000
v -0.998847 0.990647 -0.984850
v -0.995563 0.995563 -0.984850
v -0.998847 0.984850 -0.990647
v -0.997455 0.990793 -0.990793
v -0.994792 0.994792 -0.990491
v -0.993597 0.993597 -0.993597
v -0.984850 0.998847 -0.990647
v -0.984850 0.995563 -0.995563
v -0.990647 0.998847 -0.984850
v -0.990793 0.997455 -0.990793
v -0.990491 0.994792 -0.994792
v -0.990647 0.984850 -0.998847
v -0.995563 0.984850 -0.995563
v -0.984850 0.990647 -0.998847
v -0.990793 0.990793 -0.997455
v -0.994792 0.990491 -0.994792
v -1.000000 -0.984850 0.984850
v -0.984850 -1.000000 0.984850
v -0.984850 -0.984850 1.000000
v -0.998847 -0.990647 0.984850
v -0.995563 -0.995563 0.984850
v -0.998847 -0.984850 0.990647
v -0.997455 -0.990793 0.990793
v -0.994792 -0.994792 0.990491
v -0.993597 -0.993597 0.993597
v -0.984850 -0.998847 0.990647
v -0.984850 -0.995563 0.995563
v -0.990647 -0.998847 0.984850
v -0.990793 -0.997455 0.990793
v -0.990491 -0.994792 0.994792
v -0.990647 -0.984850 0.998847
v -0.995563 -0.984850 0.995563
v -0.984850 -0.990647 0.998847
v -0.990793 -0.990793 0.997455
v -0.994792 -0.990491 0.994792
v -0.984850 -0.984850 -1.000000
v -0.984850 -1.000000 -0.984850
v -1.000000 -0.984850 -0.984850
v -0.984850 -0.990647 -0.998847
v -0.984850 -0.995563 -0.995563
v -0.990647 -0.984850 -0.998847
v -0.990793 -0.990793 -0.997455
v -0.990491 -0.994792 -0.994792
v -0.993597 -0.993597 -0.993597
v -0.990647 -0.998847 -0.984850
v -0.995563 -0.995563 -0.984850
v -0.984850 -0.998847 -0.990647
v -0.990793 -0.997455 -0.990793
v -0.994792 -0.994792 -0.990491
v -0.998847 -0.984850 -0.990647
v -0.995563 -0.984850 -0.995563
v -0.998847 -0.990647 -0.984850
v -0.997455 -0.990793 -0.990793
v -0.994792 -0.990491 -0.994792
vt 0.999753 0.333580
vt 0.666913 0.666420
vt 0.666913 0.333580
vt 0.333087 0.666420
vt 0.000247 0.333580
vt 0.333087 0.333580
vt 0.000247 0.000247
vt 0.333087 0.333087
vt 0.000247 0.333087
vt 0.000247 0.666913
vt 0.333087 0.999753
vt 0.000247 0.999753
vt 0.666913 0.333087
vt 0.999753 0.000247
vt 0.999753 0.333087
vt 0.481071 0.660993
vt 0.481417 0.662386
vt 0.480520 0.661869
vt 0.481759 0.660193
vt 0.481963 0.661511
vt 0.482398 0.662773
vt 0.482823 0.661298
vt 0.482669 0.661835
vt 0.483964 0.659934
vt 0.482585 0.659536
vt 0.483481 0.659019
vt 0.484313 0.660929
vt 0.483069 0.660447
vt 0.482436 0.660896
vt 0.483435 0.662968
vt 0.484469 0.661973
vt 0.484469 0.663008
vt 0.483438 0.661937
vt 0.483365 0.661164
vt 0.475080 0.659934
vt 0.473701 0.659536
vt 0.474597 0.659019
vt 0.475429 0.660929
vt 0.474185 0.660447
vt 0.472875 0.660193
vt 0.473939 0.661298
vt 0.473552 0.660896
vt 0.474551 0.662968
vt 0.475585 0.661973
vt 0.475585 0.663008
vt 0.473514 0.662772
vt 0.474554 0.661937
vt 0.474481 0.661164
vt 0.472188 0.660993
vt 0.472533 0.662386
vt 0.471636 0.661869
vt 0.473079 0.661511
vt 0.473785 0.661835
vt 0.470109 0.662968
vt 0.471143 0.661973
vt 0.471143 0.663008
vt 0.469072 0.662772
vt 0.470112 0.661937
vt 0.470987 0.660929
vt 0.469498 0.661298
vt 0.470039 0.661164
vt 0.467746 0.660993
vt 0.468091 0.662386
vt 0.467194 0.661869
vt 0.468433 0.660193
vt 0.468637 0.661511
vt 0.469343 0.661835
vt 0.470638 0.659934
vt 0.469259 0.659536
vt 0.470155 0.659019
vt 0.469743 0.660447
vt 0.469110 0.660896
vt 0.488911 0.660053
vt 0.487877 0.659058
vt 0.488911 0.659019
vt 0.488755 0.661097
vt 0.487880 0.660089
vt 0.486840 0.659254
vt 0.487265 0.660728
vt 0.487111 0.660192
vt 0.487027 0.662490
vt 0.488406 0.662092
vt 0.487923 0.663008
vt 0.486201 0.661833
vt 0.487511 0.661579
vt 0.487807 0.660862
vt 0.485858 0.659640
vt 0.485513 0.661034
vt 0.484962 0.660158
vt 0.486405 0.660515
vt 0.486878 0.661130
vt 0.493353 0.660053
vt 0.492319 0.659058
vt 0.493353 0.659019
vt 0.493197 0.661097
vt 0.492322 0.660089
vt 0.491282 0.659254
vt 0.491707 0.660728
vt 0.491553 0.660192
vt 0.491469 0.662490
vt 0.492848 0.662092
vt 0.492365 0.663008
vt 0.490643 0.661833
vt 0.491953 0.661579
vt 0.492249 0.660862
vt 0.490300 0.659640
vt 0.489955 0.661034
vt 0.489404 0.660158
vt 0.490847 0.660515
vt 0.491320 0.661130
vt 0.458862 0.660993
vt 0.459207 0.662386
vt 0.458311 0.661869
vt 0.459550 0.660193
vt 0.459753 0.661511
vt 0.460188 0.662772
vt 0.460614 0.661298
vt 0.460459 0.661835
vt 0.461754 0.659934
vt 0.460375 0.659536
vt 0.461271 0.659019
vt 0.462103 0.660929
vt 0.460859 0.660447
vt 0.460227 0.660896
vt 0.461225 0.662968
vt 0.462259 0.661973
vt 0.462259 0.663008
vt 0.461228 0.661937
vt 0.461156 0.661164
vt 0.464817 0.662490
vt 0.466196 0.662092
vt 0.465713 0.663008
vt 0.463992 0.661833
vt 0.465301 0.661579
vt 0.466545 0.661097
vt 0.465056 0.660728
vt 0.465597 0.660862
vt 0.463649 0.659640
vt 0.463304 0.661034
vt 0.462752 0.660158
vt 0.464630 0.659254
vt 0.464195 0.660515
vt 0.464668 0.661130
vt 0.466701 0.660053
vt 0.465667 0.659058
vt 0.466701 0.659019
vt 0.465670 0.660089
vt 0.464901 0.660192
vt 0.479522 0.659934
vt 0.478143 0.659536
vt 0.479039 0.659019
vt 0.479871 0.660929
vt 0.478627 0.660447
vt 0.477317 0.660193
vt 0.478381 0.661298
vt 0.477994 0.660896
vt 0.478993 0.662968
vt 0.480027 0.661973
vt 0.480027 0.663008
vt 0.477956 0.662772
vt 0.478996 0.661937
vt 0.478923 0.661164
vt 0.476630 0.660993
vt 0.476975 0.662386
vt 0.476078 0.661869
vt 0.477521 0.661511
vt 0.478227 0.661835
vt 0.542951 0.527040
vt 0.545360 0.665043
vt 0.542951 0.665064
vt 0.545360 0.527020
vt 0.547768 0.665023
vt 0.547768 0.527000
vt 0.550177 0.665002
vt 0.550177 0.526979
vt 0.552586 0.664982
vt 0.553080 0.527040
vt 0.555488 0.665043
vt 0.553080 0.665064
vt 0.555488 0.527020
vt 0.557897 0.665023
vt 0.557897 0.527000
vt 0.560306 0.665002
vt 0.560306 0.526979
vt 0.562715 0.664982
vt 0.593594 0.527040
vt 0.596003 0.665043
vt 0.593594 0.665064
vt 0.596003 0.527020
vt 0.598412 0.665023
vt 0.598412 0.527000
vt 0.600821 0.665002
vt 0.600821 0.526979
vt 0.603230 0.664982
vt 0.582972 0.664982
vt 0.580564 0.526979
vt 0.582972 0.526959
vt 0.580564 0.665002
vt 0.578155 0.527000
vt 0.578155 0.665023
vt 0.575746 0.527020
vt 0.575746 0.665043
vt 0.573337 0.527040
vt 0.512565 0.527040
vt 0.514974 0.665043
vt 0.512565 0.665064
vt 0.514974 0.527020
vt 0.517382 0.665023
vt 0.517382 0.527000
vt 0.519791 0.665002
vt 0.519791 0.526979
vt 0.522200 0.664982
vt 0.583466 0.527040
vt 0.585875 0.665043
vt 0.583466 0.665064
vt 0.585875 0.527020
vt 0.588283 0.665023
vt 0.588283 0.527000
vt 0.590692 0.665002
vt 0.590692 0.526979
vt 0.593101 0.664982
vt 0.522693 0.527040
vt 0.525102 0.665043
vt 0.522693 0.665064
vt 0.525102 0.527020
vt 0.527511 0.665023
vt 0.527511 0.527000
vt 0.529920 0.665002
vt 0.529920 0.526979
vt 0.532329 0.664982
vt 0.613852 0.527040
vt 0.616261 0.665043
vt 0.613852 0.665064
vt 0.616261 0.527020
vt 0.618670 0.665023
vt 0.618670 0.527000
vt 0.621078 0.665002
vt 0.621078 0.526979
vt 0.623487 0.664982
vt 0.542457 0.664982
vt 0.540049 0.526979
vt 0.542457 0.526959
vt 0.540049 0.665002
vt 0.537640 0.527000
vt 0.537640 0.665023
vt 0.535231 0.527020
vt 0.535231 0.665043
vt 0.532822 0.527040
vt 0.572844 0.664982
vt 0.570435 0.526979
vt 0.572844 0.526959
vt 0.570435 0.665002
vt 0.568026 0.527000
vt 0.568026 0.665023
vt 0.565617 0.527020
vt 0.565617 0.665043
vt 0.563208 0.527040
vt 0.633616 0.664982
vt 0.631207 0.526979
vt 0.633616 0.526959
vt 0.631207 0.665002
vt 0.628798 0.527000
vt 0.628798 0.665023
vt 0.626390 0.527020
vt 0.626390 0.665043
vt 0.623981 0.527040
vt 0.613359 0.664982
vt 0.610950 0.526979
vt 0.613359 0.526959
vt 0.610950 0.665002
vt 0.608541 0.527000
vt 0.608541 0.665023
vt 0.606132 0.527020
vt 0.606132 0.665043
vt 0.603723 0.527040
vt 0.666420 0.333087
vt 0.333580 0.000247
vt 0.666420 0.000247
vt 0.999753 0.666420
vt 0.000247 0.666420
vt 0.333087 0.000247
vt 0.333087 0.666913
vt 0.666913 0.000247
vt 0.552586 0.526959
vt 0.562715 0.526959
vt 0.603230 0.526959
vt 0.573337 0.665064
vt 0.522200 0.526959
vt 0.593101 0.526959
vt 0.532329 0.526959
vt 0.623487 0.526959
vt 0.532822 0.665064
vt 0.563208 0.665064
vt 0.623981 0.665064
vt 0.603723 0.665064
vt 0.333580 0.333087
vn 0.0970 0.0970 -0.9905
vn -0.0970 -0.0970 -0.9905
vn -0.0970 0.0970 -0.9905
vn -0.9905 -0.0970 0.0970
vn -0.9905 0.0970 -0.0970
vn -0.9905 -0.0970 -0.0970
vn 0.0970 -0.9905 0.0970
vn -0.0970 -0.9905 -0.0970
vn 0.0970 -0.9905 -0.0970
vn -0.0970 0.0970 0.9905
vn 0.0970 -0.0970 0.9905
vn 0.0970 0.0970 0.9905
vn 0.9905 0.0970 0.0970
vn 0.9905 -0.0970 -0.0970
vn 0.9905 0.0970 -0.0970
vn 0.0972 0.9206 0.3783
vn 0.3783 0.9206 0.0972
vn 0.0970 0.9905 0.0970
vn 0.0919 0.7041 0.7041
vn 0.3703 0.8519 0.3703
vn 0.7041 0.7041 0.0919
vn 0.5773 0.5773 0.5773
vn 0.6683 0.6683 0.3266
vn 0.3783 0.0972 0.9206
vn 0.0972 0.3783 0.9206
vn 0.7041 0.0919 0.7041
vn 0.3703 0.3703 0.8519
vn 0.3266 0.6683 0.6683
vn 0.9206 0.3783 0.0972
vn 0.9206 0.0972 0.3783
vn 0.8519 0.3703 0.3703
vn 0.6683 0.3266 0.6683
vn 0.0972 0.3783 -0.9206
vn 0.3783 0.0972 -0.9206
vn 0.0919 0.7041 -0.7041
vn 0.3703 0.3703 -0.8519
vn 0.7041 0.0919 -0.7041
vn 0.5773 0.5773 -0.5773
vn 0.6683 0.3266 -0.6683
vn 0.3783 0.9206 -0.0972
vn 0.0972 0.9206 -0.3783
vn 0.0970 0.9905 -0.0970
vn 0.7041 0.7041 -0.0919
vn 0.3703 0.8519 -0.3703
vn 0.3266 0.6683 -0.6683
vn 0.9206 0.0972 -0.3783
vn 0.9206 0.3783 -0.0972
vn 0.8519 0.3703 -0.3703
vn 0.6683 0.6683 -0.3266
vn 0.9206 -0.0972 0.3783
vn 0.9206 -0.3783 0.0972
vn 0.9905 -0.0970 0.0970
vn 0.7041 -0.0919 0.7041
vn 0.8519 -0.3703 0.3703
vn 0.7041 -0.7041 0.0919
vn 0.5773 -0.5773 0.5773
vn 0.6683 -0.6683 0.3266
vn 0.0972 -0.3783 0.9206
vn 0.3783 -0.0972 0.9206
vn 0.0919 -0.7041 0.7041
vn 0.3703 -0.3703 0.8519
vn 0.6683 -0.3266 0.6683
vn 0.3783 -0.9206 0.0972
vn 0.0972 -0.9206 0.3783
vn 0.3703 -0.8519 0.3703
vn 0.3266 -0.6683 0.6683
vn 0.9206 -0.3783 -0.0972
vn 0.9206 -0.0972 -0.3783
vn 0.7041 -0.7041 -0.0919
vn 0.8519 -0.3703 -0.3703
vn 0.7041 -0.0919 -0.7041
vn 0.5773 -0.5773 -0.5773
vn 0.6683 -0.3266 -0.6683
vn 0.0972 -0.9206 -0.3783
vn 0.3783 -0.9206 -0.0972
vn 0.0919 -0.7041 -0.7041
vn 0.3703 -0.8519 -0.3703
vn 0.6683 -0.6683 -0.3266
vn 0.3783 -0.0972 -0.9206
vn 0.0972 -0.3783 -0.9206
vn 0.0970 -0.0970 -0.9905
vn 0.3703 -0.3703 -0.8519
vn 0.3266 -0.6683 -0.6683
vn -0.3783 0.9206 0.0972
vn -0.0972 0.9206 0.3783
vn -0.0970 0.9905 0.0970
vn -0.7041 0.7041 0.0919
vn -0.3703 0.8519 0.3703
vn -0.0919 0.7041 0.7041
vn -0.5773 0.5773 0.5773
vn -0.3266 0.6683 0.6683
vn -0.9206 0.0972 0.3783
vn -0.9206 0.3783 0.0972
vn -0.9905 0.0970 0.0970
vn -0.7041 0.0919 0.7041
vn -0.8519 0.3703 0.3703
vn -0.6683 0.6683 0.3266
vn -0.0972 0.3783 0.9206
vn -0.3783 0.0972 0.9206
vn -0.3703 0.3703 0.8519
vn -0.6683 0.3266 0.6683
vn -0.9206 0.3783 -0.0972
vn -0.9206 0.0972 -0.3783
vn -0.7041 0.7041 -0.0919
vn -0.8519 0.3703 -0.3703
vn -0.7041 0.0919 -0.7041
vn -0.5773 0.5773 -0.5773
vn -0.6683 0.3266 -0.6683
vn -0.0972 0.9206 -0.3783
vn -0.3783 0.9206 -0.0972
vn -0.0970 0.9905 -0.0970
vn -0.0919 0.7041 -0.7041
vn -0.3703 0.8519 -0.3703
vn -0.6683 0.6683 -0.3266
vn -0.3783 0.0972 -0.9206
vn -0.0972 0.3783 -0.9206
vn -0.3703 0.3703 -0.8519
vn -0.3266 0.6683 -0.6683
vn -0.9206 -0.3783 0.0972
vn -0.9206 -0.0972 0.3783
vn -0.7041 -0.7041 0.0919
vn -0.8519 -0.3703 0.3703
vn -0.7041 -0.0919 0.7041
vn -0.5773 -0.5773 0.5773
vn -0.6683 -0.3266 0.6683
vn -0.0972 -0.9206 0.3783
vn -0.3783 -0.9206 0.0972
vn -0.0970 -0.9905 0.0970
vn -0.0919 -0.7041 0.7041
vn -0.3703 -0.8519 0.3703
vn -0.6683 -0.6683 0.3266
vn -0.3783 -0.0972 0.9206
vn -0.0972 -0.3783 0.9206
vn -0.0970 -0.0970 0.9905
vn -0.3703 -0.3703 0.8519
vn -0.3266 -0.6683 0.6683
vn -0.0972 -0.3783 -0.9206
vn -0.3783 -0.0972 -0.9206
vn -0.0919 -0.7041 -0.7041
vn -0.3703 -0.3703 -0.8519
vn -0.7041 -0.0919 -0.7041
vn -0.5773 -0.5773 -0.5773
vn -0.6683 -0.3266 -0.6683
vn -0.3783 -0.9206 -0.0972
vn -0.0972 -0.9206 -0.3783
vn -0.7041 -0.7041 -0.0919
vn -0.3703 -0.8519 -0.3703
vn -0.3266 -0.6683 -0.6683
vn -0.9206 -0.0972 -0.3783
vn -0.9206 -0.3783 -0.0972
vn -0.8519 -0.3703 -0.3703
vn -0.6683 -0.6683 -0.3266
s 1
f 20/1/1 134/2/2 98/3/3
f 115/4/4 96/5/5 136/6/6
f 41/7/7 135/8/8 59/9/9
f 79/10/10 40/11/11 2/12/12
f 3/13/13 58/14/14 22/15/15
f 4/16/16 6/17/17 1/18/18
f 5/19/19 7/20/20 4/16/16
f 7/20/20 16/21/21 6/17/17
f 7/20/20 9/22/22 19/23/23
f 10/24/24 12/25/25 2/26/12
f 11/27/26 13/28/27 10/24/24
f 13/28/27 5/19/19 12/25/25
f 13/28/27 9/22/22 8/29/28
f 15/30/29 17/31/30 3/32/13
f 16/21/21 18/33/31 15/30/29
f 18/33/31 11/27/26 17/31/30
f 18/33/31 9/22/22 14/34/32
f 23/35/33 25/36/34 20/37/1
f 24/38/35 26/39/36 23/35/33
f 26/39/36 35/40/37 25/36/34
f 26/39/36 28/41/38 38/42/39
f 29/43/40 31/44/41 21/45/42
f 30/46/43 32/47/44 29/43/40
f 32/47/44 24/38/35 31/44/41
f 32/47/44 28/41/38 27/48/45
f 34/49/46 36/50/47 22/51/15
f 35/40/37 37/52/48 34/49/46
f 37/52/48 30/46/43 36/50/47
f 37/52/48 28/41/38 33/53/49
f 42/54/50 44/55/51 39/56/52
f 43/57/53 45/58/54 42/54/50
f 45/58/54 54/59/55 44/55/51
f 45/58/54 47/60/56 57/61/57
f 48/62/58 50/63/59 40/64/11
f 49/65/60 51/66/61 48/62/58
f 51/66/61 43/57/53 50/63/59
f 51/66/61 47/60/56 46/67/62
f 53/68/63 55/69/64 41/70/7
f 54/59/55 56/71/65 53/68/63
f 56/71/65 49/65/60 55/69/64
f 56/71/65 47/60/56 52/72/66
f 61/73/67 63/74/68 58/75/14
f 62/76/69 64/77/70 61/73/67
f 64/77/70 73/78/71 63/74/68
f 64/77/70 66/79/72 76/80/73
f 67/81/74 69/82/75 59/83/9
f 68/84/76 70/85/77 67/81/74
f 70/85/77 62/76/69 69/82/75
f 70/85/77 66/79/72 65/86/78
f 72/87/79 74/88/80 60/89/81
f 73/78/71 75/90/82 72/87/79
f 75/90/82 68/84/76 74/88/80
f 75/90/82 66/79/72 71/91/83
f 80/92/84 82/93/85 77/94/86
f 81/95/87 83/96/88 80/92/84
f 83/96/88 92/97/89 82/93/85
f 83/96/88 85/98/90 95/99/91
f 86/100/92 88/101/93 78/102/94
f 87/103/95 89/104/96 86/100/92
f 89/104/96 81/95/87 88/101/93
f 89/104/96 85/98/90 84/105/97
f 91/106/98 93/107/99 79/108/10
f 92/97/89 94/109/100 91/106/98
f 94/109/100 87/103/95 93/107/99
f 94/109/100 85/98/90 90/110/101
f 99/111/102 101/112/103 96/113/5
f 100/114/104 102/115/105 99/111/102
f 102/115/105 111/116/106 101/112/103
f 102/115/105 104/117/107 114/118/108
f 105/119/109 107/120/110 97/121/111
f 106/122/112 108/123/113 105/119/109
f 108/123/113 100/114/104 107/120/110
f 108/123/113 104/117/107 103/124/114
f 110/125/115 112/126/116 98/127/3
f 111/116/106 113/128/117 110/125/115
f 113/128/117 106/122/112 112/126/116
f 113/128/117 104/117/107 109/129/118
f 118/130/119 120/131/120 115/132/4
f 119/133/121 121/134/122 118/130/119
f 121/134/122 130/135/123 120/131/120
f 121/134/122 123/136/124 133/137/125
f 124/138/126 126/139/127 116/140/128
f 125/141/129 127/142/130 124/138/126
f 127/142/130 119/133/121 126/139/127
f 127/142/130 123/136/124 122/143/131
f 129/144/132 131/145/133 117/146/134
f 130/135/123 132/147/135 129/144/132
f 132/147/135 125/141/129 131/145/133
f 132/147/135 123/136/124 128/148/136
f 137/149/137 139/150/138 134/151/2
f 138/152/139 140/153/140 137/149/137
f 140/153/140 149/154/141 139/150/138
f 140/153/140 142/155/142 152/156/143
f 143/157/144 145/158/145 135/159/8
f 144/160/146 146/161/147 143/157/144
f 146/161/147 138/152/139 145/158/145
f 146/161/147 142/155/142 141/162/148
f 148/163/149 150/164/150 136/165/6
f 149/154/141 151/166/151 148/163/149
f 151/166/151 144/160/146 150/164/150
f 151/166/151 142/155/142 147/167/152
f 134/168/2 110/169/115 98/170/3
f 139/171/138 111/172/106 110/169/115
f 149/173/141 101/174/103 111/172/106
f 148/175/149 96/176/5 101/174/103
f 98/177/3 23/178/33 20/179/1
f 112/180/116 24/181/35 23/178/33
f 106/182/112 31/183/41 24/181/35
f 105/184/109 21/185/42 31/183/41
f 22/186/15 15/187/29 3/188/13
f 36/189/47 16/190/21 15/187/29
f 30/191/43 6/192/17 16/190/21
f 29/193/40 1/194/18 6/192/17
f 116/195/128 143/196/144 135/197/8
f 126/198/127 144/199/146 143/196/144
f 119/200/121 150/201/150 144/199/146
f 118/202/119 136/203/6 150/201/150
f 59/204/9 53/205/63 41/206/7
f 69/207/75 54/208/55 53/205/63
f 62/209/69 44/210/51 54/208/55
f 61/211/67 39/212/52 44/210/51
f 97/213/111 80/214/84 77/215/86
f 107/216/110 81/217/87 80/214/84
f 100/218/104 88/219/93 81/217/87
f 99/220/102 78/221/94 88/219/93
f 117/222/134 48/223/58 40/224/11
f 131/225/133 49/226/60 48/223/58
f 125/227/129 55/228/64 49/226/60
f 124/229/126 41/230/7 55/228/64
f 40/231/11 10/232/24 2/233/12
f 50/234/59 11/235/26 10/232/24
f 43/236/53 17/237/30 11/235/26
f 42/238/50 3/239/13 17/237/30
f 60/240/81 137/241/137 134/242/2
f 74/243/80 138/244/139 137/241/137
f 68/245/76 145/246/145 138/244/139
f 67/247/74 135/248/8 145/246/145
f 79/249/10 129/250/132 117/251/134
f 93/252/99 130/253/123 129/250/132
f 87/254/95 120/255/120 130/253/123
f 86/256/92 115/257/4 120/255/120
f 2/258/12 91/259/98 79/260/10
f 12/261/25 92/262/89 91/259/98
f 5/263/19 82/264/85 92/262/89
f 4/265/16 77/266/86 82/264/85
f 20/267/1 72/268/79 60/269/81
f 25/270/34 73/271/71 72/268/79
f 35/272/37 63/273/68 73/271/71
f 34/274/46 58/275/14 63/273/68
f 77/276/86 21/277/42 97/278/111
f 20/1/1 60/279/81 134/2/2
f 115/4/4 78/280/94 96/5/5
f 41/7/7 116/281/128 135/8/8
f 79/10/10 117/282/134 40/11/11
f 3/13/13 39/283/52 58/14/14
f 4/16/16 7/20/20 6/17/17
f 5/19/19 8/29/28 7/20/20
f 7/20/20 19/23/23 16/21/21
f 7/20/20 8/29/28 9/22/22
f 10/24/24 13/28/27 12/25/25
f 11/27/26 14/34/32 13/28/27
f 13/28/27 8/29/28 5/19/19
f 13/28/27 14/34/32 9/22/22
f 15/30/29 18/33/31 17/31/30
f 16/21/21 19/23/23 18/33/31
f 18/33/31 14/34/32 11/27/26
f 18/33/31 19/23/23 9/22/22
f 23/35/33 26/39/36 25/36/34
f 24/38/35 27/48/45 26/39/36
f 26/39/36 38/42/39 35/40/37
f 26/39/36 27/48/45 28/41/38
f 29/43/40 32/47/44 31/44/41
f 30/46/43 33/53/49 32/47/44
f 32/47/44 27/48/45 24/38/35
f 32/47/44 33/53/49 28/41/38
f 34/49/46 37/52/48 36/50/47
f 35/40/37 38/42/39 37/52/48
f 37/52/48 33/53/49 30/46/43
f 37/52/48 38/42/39 28/41/38
f 42/54/50 45/58/54 44/55/51
f 43/57/53 46/67/62 45/58/54
f 45/58/54 57/61/57 54/59/55
f 45/58/54 46/67/62 47/60/56
f 48/62/58 51/66/61 50/63/59
f 49/65/60 52/72/66 51/66/61
f 51/66/61 46/67/62 43/57/53
f 51/66/61 52/72/66 47/60/56
f 53/68/63 56/71/65 55/69/64
f 54/59/55 57/61/57 56/71/65
f 56/71/65 52/72/66 49/65/60
f 56/71/65 57/61/57 47/60/56
f 61/73/67 64/77/70 63/74/68
f 62/76/69 65/86/78 64/77/70
f 64/77/70 76/80/73 73/78/71
f 64/77/70 65/86/78 66/79/72
f 67/81/74 70/85/77 69/82/75
f 68/84/76 71/91/83 70/85/77
f 70/85/77 65/86/78 62/76/69
f 70/85/77 71/91/83 66/79/72
f 72/87/79 75/90/82 74/88/80
f 73/78/71 76/80/73 75/90/82
f 75/90/82 71/91/83 68/84/76
f 75/90/82 76/80/73 66/79/72
f 80/92/84 83/96/88 82/93/85
f 81/95/87 84/105/97 83/96/88
f 83/96/88 95/99/91 92/97/89
f 83/96/88 84/105/97 85/98/90
f 86/100/92 89/104/96 88/101/93
f 87/103/95 90/110/101 89/104/96
f 89/104/96 84/105/97 81/95/87
f 89/104/96 90/110/101 85/98/90
f 91/106/98 94/109/100 93/107/99
f 92/97/89 95/99/91 94/109/100
f 94/109/100 90/110/101 87/103/95
f 94/109/100 95/99/91 85/98/90
f 99/111/102 102/115/105 101/112/103
f 100/114/104 103/124/114 102/115/105
f 102/115/105 114/118/108 111/116/106
f 102/115/105 103/124/114 104/117/107
f 105/119/109 108/123/113 107/120/110
f 106/122/112 109/129/118 108/123/113
f 108/123/113 103/124/114 100/114/104
f 108/123/113 109/129/118 104/117/107
f 110/125/115 113/128/117 112/126/116
f 111/116/106 114/118/108 113/128/117
f 113/128/117 109/129/118 106/122/112
f 113/128/117 114/118/108 104/117/107
f 118/130/119 121/134/122 120/131/120
f 119/133/121 122/143/131 121/134/122
f 121/134/122 133/137/125 130/135/123
f 121/134/122 122/143/131 123/136/124
f 124/138/126 127/142/130 126/139/127
f 125/141/129 128/148/136 127/142/130
f 127/142/130 122/143/131 119/133/121
f 127/142/130 128/148/136 123/136/124
f 129/144/132 132/147/135 131/145/133
f 130/135/123 133/137/125 132/147/135
f 132/147/135 128/148/136 125/141/129
f 132/147/135 133/137/125 123/136/124
f 137/149/137 140/153/140 139/150/138
f 138/152/139 141/162/148 140/153/140
f 140/153/140 152/156/143 149/154/141
f 140/153/140 141/162/148 142/155/142
f 143/157/144 146/161/147 145/158/145
f 144/160/146 147/167/152 146/161/147
f 146/161/147 141/162/148 138/152/139
f 146/161/147 147/167/152 142/155/142
f 148/163/149 151/166/151 150/164/150
f 149/154/141 152/156/143 151/166/151
f 151/166/151 147/167/152 144/160/146
f 151/166/151 152/156/143 142/155/142
f 134/168/2 139/171/138 110/169/115
f 139/171/138 149/173/141 111/172/106
f 149/173/141 148/175/149 101/174/103
f 148/175/149 136/284/6 96/176/5
f 98/177/3 112/180/116 23/178/33
f 112/180/116 106/182/112 24/181/35
f 106/182/112 105/184/109 31/183/41
f 105/184/109 97/285/111 21/185/42
f 22/186/15 36/189/47 15/187/29
f 36/189/47 30/191/43 16/190/21
f 30/191/43 29/193/40 6/192/17
f 29/193/40 21/286/42 1/194/18
f 116/195/128 126/198/127 143/196/144
f 126/198/127 119/200/121 144/199/146
f 119/200/121 118/202/119 150/201/150
f 118/202/119 115/287/4 136/203/6
f 59/204/9 69/207/75 53/205/63
f 69/207/75 62/209/69 54/208/55
f 62/209/69 61/211/67 44/210/51
f 61/211/67 58/288/14 39/212/52
f 97/213/111 107/216/110 80/214/84
f 107/216/110 100/218/104 81/217/87
f 100/218/104 99/220/102 88/219/93
f 99/220/102 96/289/5 78/221/94
f 117/222/134 131/225/133 48/223/58
f 131/225/133 125/227/129 49/226/60
f 125/227/129 124/229/126 55/228/64
f 124/229/126 116/290/128 41/230/7
f 40/231/11 50/234/59 10/232/24
f 50/234/59 43/236/53 11/235/26
f 43/236/53 42/238/50 17/237/30
f 42/238/50 39/291/52 3/239/13
f 60/240/81 74/243/80 137/241/137
f 74/243/80 68/245/76 138/244/139
f 68/245/76 67/247/74 145/246/145
f 67/247/74 59/292/9 135/248/8
f 79/249/10 93/252/99 129/250/132
f 93/252/99 87/254/95 130/253/123
f 87/254/95 86/256/92 120/255/120
f 86/256/92 78/293/94 115/257/4
f 2/258/12 12/261/25 91/259/98
f 12/261/25 5/263/19 92/262/89
f 5/263/19 4/265/16 82/264/85
f 4/265/16 1/294/18 77/266/86
f 20/267/1 25/270/34 72/268/79
f 25/270/34 35/272/37 73/271/71
f 35/272/37 34/274/46 63/273/68
f 34/274/46 22/295/15 58/275/14
f 77/276/86 1/296/18 21/277/42
