# Blender v2.90.1 OBJ File: 'ground.blend'
# www.blender.org
o Cube
v 0.500000 1.000041 -2.000000
v 0.500000 0.000041 -2.000000
v 0.500000 1.000041 2.000000
v 0.500000 0.000041 2.000000
v -0.500000 1.000041 -2.000000
v -0.500000 0.000041 -2.000000
v -0.500000 1.000041 2.000000
v -0.500000 0.000041 2.000000
v 0.500000 0.872884 -2.000000
v -0.500000 0.872884 2.000000
v 0.500000 0.872884 2.000000
v -0.500000 0.872884 -2.000000
v 0.500000 0.826031 -2.000000
v 0.500000 0.826031 2.000000
v -0.500000 0.826031 -2.000000
v -0.500000 0.826031 2.000000
v -0.500000 0.826031 2.000000
v -0.490586 0.860508 1.962345
v -0.490586 0.860508 -1.962345
v 0.490586 0.860508 -1.962345
v 0.490586 0.860508 1.962345
v 0.490586 0.838407 -1.962345
v 0.500000 0.826031 2.000000
v -0.500000 0.826031 -2.000000
v -0.500000 0.872884 -2.000000
v 0.500000 0.872884 -2.000000
v 0.500000 0.872884 2.000000
v -0.500000 0.872884 2.000000
v 0.490586 0.838407 1.962345
v -0.490586 0.838407 1.962345
v -0.490586 0.838407 -1.962345
v 0.500000 0.826031 -2.000000
vt 0.714844 0.964844
vt 0.714844 0.964844
vt 0.714844 0.964844
vt 0.714844 0.964844
vt 0.714844 0.964844
vt 0.714844 0.964844
vt 0.714844 0.964844
vt 0.714844 0.964844
vt 0.714844 0.964844
vt 0.714844 0.964844
vt 0.714844 0.964844
vt 0.714844 0.964844
vt 0.714844 0.964844
vt 0.714844 0.964844
vt 0.714844 0.964844
vt 0.714844 0.964844
vt 0.714844 0.964844
vt 0.714844 0.964844
vt 0.714844 0.964844
vt 0.714844 0.964844
vt 0.714844 0.964844
vt 0.714844 0.964844
vt 0.710938 0.925781
vt 0.710938 0.925781
vt 0.710938 0.925781
vt 0.710938 0.925781
vt 0.710938 0.925781
vt 0.710938 0.925781
vt 0.710938 0.925781
vt 0.710938 0.925781
vt 0.714844 0.964844
vt 0.714844 0.964844
vt 0.714844 0.964844
vt 0.714844 0.964844
vt 0.714844 0.964844
vt 0.714844 0.964844
vt 0.714844 0.964844
vt 0.714844 0.964844
vt 0.714844 0.964844
vt 0.714844 0.964844
vn 0.0000 1.0000 0.0000
vn 0.0000 0.0000 1.0000
vn -1.0000 0.0000 0.0000
vn 0.0000 -1.0000 0.0000
vn 1.0000 0.0000 0.0000
vn 0.0000 0.0000 -1.0000
vn 0.0000 -0.9500 -0.3122
vn 0.7959 -0.6054 0.0000
vn -0.7959 -0.6054 0.0000
vn 0.0000 -0.9500 0.3122
vn 0.0000 0.9500 0.3122
vn -0.7959 0.6054 0.0000
vn 0.7959 0.6054 0.0000
vn 0.0000 0.9500 -0.3122
s off
f 5/1/1 3/2/1 1/3/1
f 3/2/2 10/4/2 11/5/2
f 7/6/3 12/7/3 10/4/3
f 2/8/4 8/9/4 6/10/4
f 1/3/5 11/5/5 9/11/5
f 5/1/6 9/11/6 12/7/6
f 16/12/2 23/13/2 17/14/2
f 14/15/2 32/16/2 23/13/2
f 9/11/2 27/17/2 26/18/2
f 11/5/2 28/19/2 27/17/2
f 14/15/2 8/9/2 4/20/2
f 16/12/3 6/10/3 8/9/3
f 13/21/5 4/20/5 2/8/5
f 15/22/6 2/8/6 6/10/6
f 19/23/6 22/24/6 31/25/6
f 20/26/5 29/27/5 22/24/5
f 18/28/3 31/25/3 30/29/3
f 21/30/2 30/29/2 29/27/2
f 10/4/2 25/31/2 28/19/2
f 13/21/2 24/32/2 32/16/2
f 12/7/2 26/18/2 25/31/2
f 15/22/2 17/14/2 24/32/2
f 19/33/7 26/18/7 20/34/7
f 20/34/8 27/17/8 21/35/8
f 18/36/9 25/31/9 19/33/9
f 21/35/10 28/19/10 18/36/10
f 30/37/11 23/13/11 29/38/11
f 31/39/12 17/14/12 30/37/12
f 29/38/13 32/16/13 22/40/13
f 22/40/14 24/32/14 31/39/14
f 5/1/1 7/6/1 3/2/1
f 3/2/2 7/6/2 10/4/2
f 7/6/3 5/1/3 12/7/3
f 2/8/4 4/20/4 8/9/4
f 1/3/5 3/2/5 11/5/5
f 5/1/6 1/3/6 9/11/6
f 16/12/2 14/15/2 23/13/2
f 14/15/2 13/21/2 32/16/2
f 9/11/2 11/5/2 27/17/2
f 11/5/2 10/4/2 28/19/2
f 14/15/2 16/12/2 8/9/2
f 16/12/3 15/22/3 6/10/3
f 13/21/5 14/15/5 4/20/5
f 15/22/6 13/21/6 2/8/6
f 19/23/6 20/26/6 22/24/6
f 20/26/5 21/30/5 29/27/5
f 18/28/3 19/23/3 31/25/3
f 21/30/2 18/28/2 30/29/2
f 10/4/2 12/7/2 25/31/2
f 13/21/2 15/22/2 24/32/2
f 12/7/2 9/11/2 26/18/2
f 15/22/2 16/12/2 17/14/2
f 19/33/7 25/31/7 26/18/7
f 20/34/8 26/18/8 27/17/8
f 18/36/9 28/19/9 25/31/9
f 21/35/10 27/17/10 28/19/10
f 30/37/11 17/14/11 23/13/11
f 31/39/12 24/32/12 17/14/12
f 29/38/13 23/13/13 32/16/13
f 22/40/14 32/16/14 24/32/14
