# Blender v2.90.1 OBJ File: 'pillar.blend'
# www.blender.org
o Pillar
v -0.500227 -0.992522 -2.005877
v -0.500227 1.007053 -2.005877
v -0.500227 -0.992522 -3.002547
v -0.500227 1.007053 -3.002547
v 0.496442 -0.992522 -2.005877
v 0.496442 1.007053 -2.005877
v 0.496442 -0.992522 -3.002547
v 0.496442 1.007053 -3.002547
v -0.096813 -0.992522 -2.806338
v -0.096813 1.007053 -2.806338
v -0.096813 -0.992522 -2.202086
v -0.096813 1.007053 -2.202086
v 0.104128 1.007053 -2.806338
v 0.104128 -0.992522 -2.202086
v 0.104128 -0.992522 -2.806338
v 0.104128 1.007053 -2.202086
v -0.500227 -0.997973 3.003995
v -0.500227 1.001603 3.003995
v -0.500227 -0.997973 2.007326
v -0.500227 1.001603 2.007326
v 0.496442 -0.997973 3.003995
v 0.496442 1.001603 3.003995
v 0.496442 -0.997973 2.007326
v 0.496442 1.001603 2.007326
v -0.096813 -0.997973 2.203535
v -0.096813 1.001603 2.203535
v -0.096813 -0.997973 2.807786
v -0.096813 1.001603 2.807786
v 0.104128 1.001603 2.203535
v 0.104128 -0.997973 2.807786
v 0.104128 -0.997973 2.203535
v 0.104128 1.001603 2.807786
vt 0.792969 0.476562
vt 0.792969 0.476562
vt 0.792969 0.476562
vt 0.792969 0.476562
vt 0.792969 0.476562
vt 0.792969 0.476562
vt 0.792969 0.476562
vt 0.792969 0.476562
vt 0.792969 0.476563
vt 0.792969 0.476563
vt 0.792969 0.476563
vt 0.792969 0.476562
vt 0.792969 0.476562
vt 0.792969 0.476562
vt 0.792969 0.476562
vt 0.792969 0.476562
vt 0.792969 0.476562
vt 0.792969 0.476562
vt 0.792969 0.476562
vt 0.792969 0.476562
vt 0.792969 0.476562
vt 0.792969 0.476562
vt 0.792969 0.476562
vt 0.792969 0.476562
vt 0.792969 0.476563
vt 0.792969 0.476563
vt 0.792969 0.476563
vt 0.792969 0.476562
vt 0.792969 0.476562
vt 0.792969 0.476562
vt 0.792969 0.476562
vt 0.792969 0.476562
vn -1.0000 0.0000 0.0000
vn -0.4473 0.0000 -0.8944
vn 1.0000 0.0000 0.0000
vn 0.4374 -0.0000 0.8993
vn 0.0000 -1.0000 -0.0000
vn 0.0000 1.0000 -0.0000
vn 0.0000 0.0000 1.0000
vn 0.4374 0.0000 -0.8993
vn -0.4473 0.0000 0.8944
vn 0.0000 0.0000 -1.0000
s off
f 2/1/1 3/2/1 1/3/1
f 13/4/2 7/5/2 15/6/2
f 8/7/3 5/8/3 7/5/3
f 12/9/4 1/3/4 11/10/4
f 7/5/5 14/11/5 15/6/5
f 4/12/6 12/9/6 10/13/6
f 10/13/6 16/14/6 13/4/6
f 3/2/5 11/10/5 1/3/5
f 16/14/7 11/10/7 14/11/7
f 4/12/8 9/15/8 3/2/8
f 5/8/9 16/14/9 14/11/9
f 8/7/6 16/14/6 6/16/6
f 15/6/5 11/10/5 9/15/5
f 10/13/10 15/6/10 9/15/10
f 18/17/1 19/18/1 17/19/1
f 29/20/2 23/21/2 31/22/2
f 24/23/3 21/24/3 23/21/3
f 28/25/4 17/19/4 27/26/4
f 23/21/5 30/27/5 31/22/5
f 20/28/6 28/25/6 26/29/6
f 26/29/6 32/30/6 29/20/6
f 19/18/5 27/26/5 17/19/5
f 32/30/7 27/26/7 30/27/7
f 20/28/8 25/31/8 19/18/8
f 22/32/9 30/27/9 21/24/9
f 24/23/6 32/30/6 22/32/6
f 31/22/5 27/26/5 25/31/5
f 26/29/10 31/22/10 25/31/10
f 2/1/1 4/12/1 3/2/1
f 13/4/2 8/7/2 7/5/2
f 8/7/3 6/16/3 5/8/3
f 12/9/4 2/1/4 1/3/4
f 7/5/5 5/8/5 14/11/5
f 4/12/6 2/1/6 12/9/6
f 10/13/6 12/9/6 16/14/6
f 3/2/5 9/15/5 11/10/5
f 16/14/7 12/9/7 11/10/7
f 4/12/8 10/13/8 9/15/8
f 5/8/9 6/16/9 16/14/9
f 8/7/6 13/4/6 16/14/6
f 15/6/5 14/11/5 11/10/5
f 10/13/10 13/4/10 15/6/10
f 18/17/1 20/28/1 19/18/1
f 29/20/2 24/23/2 23/21/2
f 24/23/3 22/32/3 21/24/3
f 28/25/4 18/17/4 17/19/4
f 23/21/5 21/24/5 30/27/5
f 20/28/6 18/17/6 28/25/6
f 26/29/6 28/25/6 32/30/6
f 19/18/5 25/31/5 27/26/5
f 32/30/7 28/25/7 27/26/7
f 20/28/8 26/29/8 25/31/8
f 22/32/9 32/30/9 30/27/9
f 24/23/6 29/20/6 32/30/6
f 31/22/5 30/27/5 27/26/5
f 26/29/10 29/20/10 31/22/10
